#!OML:ASF H:\BabyWalks\Project 1\Capture day 1\Session 1\baby.ASF
:FULLY-SPECIFIED
:DEGREES
556
root 20.9898 17.6707 1.62914 -178.017 43.3713 -183.516
lowerback 19.9702 -2.27244 -2.29727
upperback 3.92078 -2.96052 0.918384
thorax -6.72908 -1.20585 3.01952
lowerneck -3.24665 -6.13835 1.32821
upperneck -2.75798 -8.1903 -0.062255
head -0.368272 -4.09134 -0.275791
rclavicle -5.68524e-014 8.54774e-015
rhumerus -60.8062 6.77482 -76.2565
rradius 40.8915
rwrist 0.963662
rhand 0.918263 -19.9451
rfingers 7.12502
rthumb 26.4696 -48.1165
lclavicle -5.68524e-014 8.54774e-015
lhumerus -42.4235 -10.7824 77.0998
lradius 80.2379
lwrist 3.57611
lhand -14.0429 3.4275
lfingers 7.12502
lthumb 12.0877 33.0584
rfemur -27.4486 0.455457 22.7708
rtibia 26.2936
rfoot -3.78026 -5.53159
rtoes 9.03204
lfemur -3.83107 5.54003 -10.5653
ltibia 46.351
lfoot 1.67714 -20.353
ltoes -18.8001
557
root 21.1156 17.6286 1.52244 -178.004 43.5781 -182.954
lowerback 20.2436 -2.25059 -1.44575
upperback 4.05656 -2.70823 1.22122
thorax -6.77089 -1.0875 2.8069
lowerneck -2.96993 -6.22242 1.56993
upperneck -3.36597 -8.30642 -0.560923
head -0.632107 -4.14844 -0.441572
rclavicle 1.19271e-014 -3.97569e-015
rhumerus -60.5292 6.67391 -76.051
rradius 40.6969
rwrist 0.703903
rhand 0.730902 -19.777
rfingers 7.12502
rthumb 26.2903 -47.9753
lclavicle 1.19271e-014 -3.97569e-015
lhumerus -42.8691 -10.6055 77.7072
lradius 78.7453
lwrist 2.83382
lhand -13.9896 3.77244
lfingers 7.12502
lthumb 12.1391 33.4003
rfemur -27.2932 0.83414 23.3741
rtibia 27.9529
rfoot -4.28641 -5.76241
rtoes 9.31034
lfemur -4.77967 5.55428 -9.7071
ltibia 49.135
lfoot 2.58845 -21.1626
ltoes -16.9185
558
root 21.2385 17.5832 1.41585 -177.831 43.9215 -182.255
lowerback 20.4549 -2.20792 -0.570064
upperback 4.19763 -2.417 1.53574
thorax -6.77127 -0.950336 2.57853
lowerneck -2.7147 -6.28151 1.8505
upperneck -3.95198 -8.39295 -1.01809
head -0.889806 -4.18906 -0.604
rclavicle 2.62396e-014 -1.51076e-014
rhumerus -60.04 6.58771 -75.8591
rradius 40.3538
rwrist 0.658009
rhand 0.606428 -19.6328
rfingers 7.12502
rthumb 26.1711 -47.8488
lclavicle 2.62396e-014 -1.51076e-014
lhumerus -43.3592 -10.3899 78.311
lradius 77.1375
lwrist 2.03788
lhand -13.9695 4.2028
lfingers 7.12502
lthumb 12.1586 33.8295
rfemur -27.1581 1.31263 24.0834
rtibia 29.5509
rfoot -5.3424 -6.04453
rtoes 8.62999
lfemur -5.79134 5.67197 -8.76162
ltibia 51.9033
lfoot 2.97256 -21.8557
ltoes -15.2857
559
root 21.3594 17.5342 1.30873 -177.546 44.3974 -181.526
lowerback 20.5782 -2.14136 0.246014
upperback 4.33506 -2.10804 1.83397
thorax -6.72217 -0.803942 2.35718
lowerneck -2.52821 -6.30586 2.17409
upperneck -4.44458 -8.43683 -1.44001
head -1.11062 -4.20823 -0.768874
rclavicle 8.74653e-015 1.47101e-014
rhumerus -59.3428 6.51601 -75.6812
rradius 39.8858
rwrist 0.861836
rhand 0.547676 -19.5208
rfingers 7.12502
rthumb 26.1148 -47.7451
lclavicle 8.74653e-015 1.47101e-014
lhumerus -43.8904 -10.1401 78.8914
lradius 75.4113
lwrist 1.23029
lhand -13.9718 4.74352
lfingers 7.12502
lthumb 12.1563 34.3703
rfemur -27.0729 1.88109 24.7944
rtibia 31.0488
rfoot -6.49153 -6.35437
rtoes 7.98574
lfemur -6.85567 5.91084 -7.82666
ltibia 54.5751
lfoot 2.82557 -22.403
ltoes -14.0103
560
root 21.4804 17.4898 1.20101 -177.227 44.9919 -180.883
lowerback 20.6136 -2.04932 0.916543
upperback 4.46063 -1.80483 2.09257
thorax -6.63008 -0.659042 2.174
lowerneck -2.43186 -6.28636 2.52548
upperneck -4.78851 -8.42512 -1.82946
head -1.27077 -4.20087 -0.936543
rclavicle 1.55052e-014 2.94201e-014
rhumerus -58.4602 6.44787 -75.5027
rradius 39.3353
rwrist 1.34387
rhand 0.518778 -19.45
rfingers 7.12502
rthumb 26.0872 -47.6784
lclavicle 1.55052e-014 2.94201e-014
lhumerus -44.4582 -9.85278 79.4422
lradius 73.5594
lwrist 0.437646
lhand -13.9942 5.37997
lfingers 7.12502
lthumb 12.1347 35.008
rfemur -27.0146 2.49508 25.4199
rtibia 32.4109
rfoot -7.61906 -6.45655
rtoes 7.75366
lfemur -7.93698 6.2721 -7.00613
ltibia 57.0513
lfoot 2.23441 -22.7775
ltoes -13.1032
561
root 21.6028 17.4524 1.09273 -176.956 45.6735 -180.414
lowerback 20.5763 -1.93516 1.38941
upperback 4.57222 -1.52727 2.29436
thorax -6.50572 -0.525165 2.04689
lowerneck -2.42737 -6.22234 2.88955
upperneck -4.96013 -8.35627 -2.19069
head -1.35969 -4.16703 -1.10617
rclavicle -1.92026e-013 1.98785e-014
rhumerus -57.431 6.35083 -75.3116
rradius 38.7596
rwrist 2.11512
rhand 0.46172 -19.4199
rfingers 7.12502
rthumb 26.0325 -47.6564
lclavicle -1.92026e-013 1.98785e-014
lhumerus -45.0441 -9.53251 79.9596
lradius 71.5721
lwrist -0.341635
lhand -14.0114 6.04828
lfingers 7.12502
lthumb 12.1181 35.6773
rfemur -26.9723 3.08158 25.9052
rtibia 33.6252
rfoot -8.68214 -6.46989
rtoes 7.73823
lfemur -9.00723 6.73392 -6.37539
ltibia 59.2723
lfoot 1.29272 -22.9674
ltoes -12.5557
